<?xml version="1.0" encoding="utf-8"?>
<!-- Generator: Adobe Illustrator 16.0.0, SVG Export Plug-In . SVG Version: 6.00 Build 0)  -->
<!DOCTYPE svg PUBLIC "-//W3C//DTD SVG 1.1//EN" "http://www.w3.org/Graphics/SVG/1.1/DTD/svg11.dtd">
<svg version="1.1" id="Layer_1" xmlns="http://www.w3.org/2000/svg" xmlns:xlink="http://www.w3.org/1999/xlink" x="0px" y="0px"
	 width="32px" height="32px" viewBox="0 0 32 32" enable-background="new 0 0 32 32" xml:space="preserve">
<g>
	<path fill="#FFFFFF" d="M31.262,13.874l-1.729-0.163c-0.203-0.701-0.479-1.369-0.846-2.004l1.098-1.328
		c0.27-0.326,0.242-0.79-0.051-1.091l-2.158-2.191c-0.293-0.301-0.771-0.326-1.1-0.057l-1.322,1.1
		c-0.627-0.358-1.301-0.644-1.988-0.847l-0.163-1.727c-0.04-0.416-0.392-0.733-0.813-0.733h-2.694V2.388
		c0-0.448-0.365-0.814-0.813-0.814c-0.445,0-0.813,0.367-0.813,0.814v4.073h-3.07c-1.308,0-2.55,0.619-3.346,1.662l-3.346,4.423
		l-5.628,1.54c-1.463,0.399-2.47,1.727-2.478,3.25v2.158c0.008,1.857,1.519,3.355,3.371,3.355H3.81
		c0.609,2.271,2.94,3.606,5.206,2.998c1.454-0.398,2.599-1.539,2.989-2.998h5.864v6.762c0,0.449,0.363,0.813,0.813,0.813
		c0.447,0,0.813-0.363,0.813-0.813v-1.955h2.694c0.422,0,0.771-0.316,0.813-0.74l0.163-1.734c0.695-0.205,1.361-0.479,1.998-0.84
		l1.322,1.1c0.324,0.271,0.797,0.244,1.09-0.049l2.184-2.188c0.295-0.293,0.317-0.771,0.051-1.103l-1.098-1.328
		c0.355-0.635,0.643-1.303,0.846-1.996l1.705-0.159C31.676,18.574,32,18.225,32,17.801V14.68C32,14.265,31.676,13.915,31.262,13.874
		z M7.902,24.374c-1.445,0-2.623-1.181-2.623-2.632c0-1.449,1.178-2.631,2.623-2.631c1.446,0,2.624,1.182,2.624,2.631
		C10.526,23.193,9.356,24.374,7.902,24.374z M17.868,21.213h-5.75c-0.285-2.338-2.404-3.99-4.727-3.714
		c-1.933,0.235-3.46,1.769-3.704,3.714H3.362c-0.958,0.008-1.738-0.766-1.746-1.727v-2.15c0.008-0.781,0.528-1.466,1.283-1.678
		l5.896-1.613c0.171-0.048,0.325-0.146,0.431-0.293l3.525-4.635c0.488-0.644,1.251-1.019,2.055-1.019h3.062V21.213z M19.492,12.782
		c1.9-0.635,3.955,0.399,4.589,2.313c0.634,1.914-0.397,3.967-2.308,4.603c-0.738,0.243-1.543,0.243-2.281,0V12.782z M30.375,17.051
		l-1.543,0.146c-0.35,0.033-0.641,0.293-0.715,0.636c-0.203,0.912-0.568,1.776-1.08,2.558c-0.194,0.301-0.17,0.687,0.057,0.961
		l0.992,1.207L26.947,23.7l-1.201-0.985c-0.275-0.229-0.666-0.253-0.967-0.049c-0.771,0.512-1.633,0.879-2.541,1.074
		c-0.35,0.072-0.602,0.365-0.635,0.717l-0.146,1.563h-1.966v-4.635c2.834,0.635,5.646-1.156,6.271-4
		c0.635-2.843-1.152-5.662-3.988-6.297c-0.754-0.171-1.531-0.171-2.279,0V6.469h1.957l0.152,1.556
		c0.033,0.35,0.293,0.644,0.635,0.717c0.908,0.203,1.771,0.57,2.551,1.075c0.301,0.195,0.686,0.171,0.959-0.057l1.191-0.993
		l1.121,1.132l-0.998,1.214c-0.229,0.277-0.252,0.668-0.049,0.969c0.512,0.774,0.877,1.637,1.072,2.55
		c0.08,0.35,0.366,0.603,0.723,0.635l1.566,0.155V17.051z"/>
</g>
</svg>
