<?xml version="1.0" encoding="utf-8"?>
<!-- Generator: Adobe Illustrator 16.0.0, SVG Export Plug-In . SVG Version: 6.00 Build 0)  -->
<!DOCTYPE svg PUBLIC "-//W3C//DTD SVG 1.1//EN" "http://www.w3.org/Graphics/SVG/1.1/DTD/svg11.dtd">
<svg version="1.1" id="Layer_1" xmlns="http://www.w3.org/2000/svg" xmlns:xlink="http://www.w3.org/1999/xlink" x="0px" y="0px"
	 width="32px" height="32px" viewBox="0 0 32 32" enable-background="new 0 0 32 32" xml:space="preserve">
<g>
	<path fill="#FFFFFF" d="M27.82,12.562c-0.275-0.937-1.023-1.671-1.965-1.926C25.229,5.453,21.037,1.5,16,1.5
		s-9.228,3.953-9.855,9.137c-0.941,0.255-1.689,0.989-1.965,1.925c-0.081,0.006-0.161,0.015-0.241,0.026V6.459
		c0-0.52-0.42-0.941-0.938-0.941S2.063,5.939,2.063,6.459v6.882C0.823,14.226,0,15.762,0,17.506c0,2.615,1.847,4.764,4.178,4.945
		c0.276,0.934,1.019,1.666,1.957,1.923c0.4,2.335,2.428,4.117,4.865,4.117h0.217C11.609,29.658,12.708,30.5,14,30.5h4
		c1.619,0,2.938-1.323,2.938-2.95S19.619,24.6,18,24.6h-4c-1.292,0-2.391,0.842-2.784,2.008h-0.217c-1.417,0-2.613-0.973-2.96-2.287
		c1.103-0.383,1.898-1.437,1.898-2.672v-8.286c0-1.24-0.8-2.296-1.909-2.674C8.614,6.53,11.975,3.383,16,3.383
		c4.025,0,7.387,3.147,7.971,7.306c-1.107,0.378-1.908,1.434-1.908,2.674v8.286c0,1.559,1.263,2.826,2.813,2.826h0.25
		c1.272,0,2.353-0.854,2.694-2.022c2.332-0.183,4.181-2.33,4.181-4.945C32,14.891,30.152,12.744,27.82,12.562z M4.063,20.538
		C2.839,20.285,1.875,19,1.875,17.506c0-1.493,0.964-2.778,2.188-3.03V20.538z M14,26.482h4c0.586,0,1.063,0.479,1.063,1.066
		S18.586,28.617,18,28.617h-4c-0.586,0-1.063-0.479-1.063-1.067C12.937,26.962,13.414,26.482,14,26.482z M8.063,13.364v8.286
		c0,0.518-0.421,0.939-0.938,0.939h-0.25c-0.518,0-0.938-0.422-0.938-0.939v-8.286c0-0.519,0.421-0.942,0.938-0.942h0.25
		C7.643,12.422,8.063,12.845,8.063,13.364z M26.063,21.648c0,0.52-0.42,0.94-0.938,0.94h-0.25c-0.518,0-0.938-0.423-0.938-0.94
		v-8.287c0-0.519,0.42-0.942,0.938-0.942h0.25c0.518,0,0.938,0.423,0.938,0.942V21.648z M27.938,20.538v-6.062
		c1.224,0.252,2.188,1.537,2.188,3.032C30.126,19.001,29.161,20.286,27.938,20.538z"/>
</g>
</svg>
