<?xml version="1.0" encoding="utf-8"?>
<!-- Generator: Adobe Illustrator 16.0.0, SVG Export Plug-In . SVG Version: 6.00 Build 0)  -->
<!DOCTYPE svg PUBLIC "-//W3C//DTD SVG 1.1//EN" "http://www.w3.org/Graphics/SVG/1.1/DTD/svg11.dtd">
<svg version="1.1" id="Layer_1" xmlns="http://www.w3.org/2000/svg" xmlns:xlink="http://www.w3.org/1999/xlink" x="0px" y="0px"
	 width="40px" height="40px" viewBox="0 0 40 40" enable-background="new 0 0 40 40" xml:space="preserve">
<g>
	<path fill="#FFFFFF" d="M39.334,18.598h-4c-0.369,0-0.668,0.296-0.667,0.662v3.975h-2.728c1.039-2.362,1.511-4.937,1.375-7.511
		C32.781,7.39,26.156,0.719,17.78,0.08C13.176-0.227,8.65,1.378,5.281,4.511C1.911,7.644-0.001,12.025,0,16.61
		c0.037,7.238,4.77,13.625,11.713,15.807l-0.193,0.392l-2.667-0.772c-0.17-0.054-0.353-0.033-0.509,0.052
		c-0.155,0.084-0.27,0.229-0.318,0.396l-0.747,2.545c-0.046,0.169-0.027,0.349,0.054,0.505c0.087,0.151,0.23,0.267,0.4,0.315
		l14.08,4.082c0.063,0.02,0.125,0.027,0.188,0.026c0.297,0,0.558-0.194,0.642-0.478l0.746-2.543c0.047-0.17,0.026-0.351-0.054-0.504
		c-0.087-0.154-0.229-0.269-0.399-0.318l-0.769-0.225l1.041-1.97c2.321,0.235,4.88,0.497,7.261,0.742
		c1.506,0.153,2.94,0.302,4.198,0.433v1.391c0,0.365,0.299,0.662,0.668,0.662h4c0.367,0,0.666-0.297,0.666-0.662V19.26
		C40,18.894,39.701,18.598,39.334,18.598z M21.547,38.475l-12.8-3.711l0.373-1.271l12.8,3.71L21.547,38.475z M12.82,33.188
		l0.207-0.418c0.751,0.168,1.513,0.285,2.28,0.353c0.16,0.014,2.9,0.291,6.466,0.655l-0.914,1.734L12.82,33.188z M32,33.491
		c-1.736-0.179-3.947-0.405-6.184-0.634c-5.023-0.516-10.181-1.045-10.403-1.063C9.369,31.301,4.185,27.314,2.189,21.622
		C0.193,15.932,1.76,9.606,6.187,5.486c2.829-2.653,6.576-4.126,10.466-4.114c0.347,0,0.693,0.013,1.04,0.033
		c5.084,0.337,9.667,3.163,12.229,7.539c2.563,4.377,2.77,9.733,0.551,14.292h-1.139v1.324H32V33.491z M34.666,33.764
		c-0.346-0.033-0.799-0.08-1.332-0.14v-9.063h1.332V33.764z M38.666,35.823H36V19.922h2.666V35.823z"/>
	<path fill="#FFFFFF" d="M16.667,5.505C10.775,5.505,6,10.252,6,16.106c0,5.855,4.776,10.6,10.667,10.6
		c5.892,0,10.667-4.746,10.667-10.6C27.327,10.254,22.555,5.513,16.667,5.505z M21.266,8.044c-0.076,2.113-1.206,4.05-3.013,5.167
		c-0.098-0.06-0.201-0.112-0.307-0.158c0.528-1.126,0.775-2.362,0.72-3.604c-0.067-0.892-0.336-1.757-0.787-2.531
		C19.071,7.073,20.221,7.456,21.266,8.044z M18.667,16.106c0,1.098-0.896,1.987-2,1.987s-2-0.89-2-1.987s0.896-1.988,2-1.988
		C17.77,14.122,18.664,15.01,18.667,16.106z M16.299,6.851c0.565,0.787,0.921,1.703,1.034,2.663
		c0.049,1.142-0.208,2.276-0.747,3.286c-0.12,0.007-0.233,0.02-0.347,0.033c-0.18-2.118-1.241-4.065-2.926-5.373
		C14.267,7.095,15.277,6.889,16.299,6.851z M11.947,8.116c0.793,0.5,1.469,1.165,1.98,1.948c0.619,0.967,0.967,2.081,1.006,3.227
		c-0.097,0.059-0.19,0.123-0.28,0.192c-0.721-1.017-1.677-1.849-2.787-2.425c-0.771-0.39-1.603-0.647-2.46-0.762
		C10.112,9.421,10.973,8.682,11.947,8.116z M8.553,11.535c2.127,0.076,4.076,1.199,5.2,2.995c-0.06,0.097-0.113,0.199-0.16,0.304
		c-1.133-0.525-2.377-0.77-3.626-0.716C9.069,14.185,8.199,14.452,7.42,14.9C7.576,13.717,7.961,12.574,8.553,11.535z M7.967,19.439
		c-0.368-0.949-0.575-1.952-0.613-2.968c0.792-0.562,1.714-0.915,2.68-1.027c1.149-0.05,2.291,0.207,3.307,0.742
		c0.007,0.118,0.02,0.235,0.04,0.351C11.247,16.709,9.283,17.761,7.967,19.439z M10.813,23.32c-0.875-0.704-1.616-1.56-2.187-2.523
		c0.504-0.788,1.172-1.46,1.96-1.968c0.973-0.616,2.094-0.961,3.247-1c0.059,0.093,0.126,0.185,0.193,0.278
		c-1.025,0.715-1.862,1.665-2.44,2.769C11.19,21.641,10.929,22.468,10.813,23.32z M12.067,24.169
		c0.076-2.112,1.206-4.05,3.013-5.167c0.099,0.06,0.201,0.113,0.307,0.159c-0.528,1.126-0.774,2.362-0.72,3.604
		c0.067,0.892,0.336,1.756,0.787,2.529C14.262,25.141,13.112,24.758,12.067,24.169z M17.033,25.361
		c-0.565-0.786-0.92-1.702-1.033-2.663c-0.049-1.142,0.208-2.276,0.746-3.285c0.117-0.007,0.232-0.02,0.347-0.04
		c0.179,2.12,1.239,4.068,2.927,5.38C19.065,25.118,18.056,25.323,17.033,25.361z M21.387,24.098
		c-0.793-0.5-1.469-1.166-1.979-1.949c-0.62-0.967-0.967-2.081-1.007-3.227c0.099-0.059,0.192-0.125,0.28-0.199
		c1.22,1.749,3.12,2.912,5.24,3.208C23.213,22.798,22.355,23.529,21.387,24.098z M24.779,20.678
		c-2.127-0.076-4.075-1.199-5.199-2.995c0.06-0.098,0.113-0.2,0.16-0.304c1.024,0.474,2.138,0.721,3.267,0.722
		c0.12,0,0.239,0,0.36-0.007c0.896-0.067,1.768-0.334,2.546-0.782C25.758,18.496,25.372,19.639,24.779,20.678z M25.367,12.774
		c0.367,0.948,0.574,1.951,0.613,2.968c-0.793,0.561-1.715,0.914-2.682,1.027c-1.148,0.053-2.292-0.203-3.307-0.742
		c-0.006-0.115-0.019-0.23-0.04-0.344C22.087,15.505,24.049,14.451,25.367,12.774z M22.747,13.384c-0.972,0.617-2.095,0.963-3.246,1
		c-0.06-0.093-0.126-0.192-0.193-0.278c1.023-0.717,1.859-1.667,2.439-2.77c0.396-0.765,0.657-1.592,0.772-2.444
		c0.875,0.704,1.617,1.56,2.188,2.524C24.204,12.205,23.536,12.875,22.747,13.384z"/>
</g>
</svg>
