<?xml version="1.0" encoding="utf-8"?>
<!-- Generator: Adobe Illustrator 16.0.0, SVG Export Plug-In . SVG Version: 6.00 Build 0)  -->
<!DOCTYPE svg PUBLIC "-//W3C//DTD SVG 1.1//EN" "http://www.w3.org/Graphics/SVG/1.1/DTD/svg11.dtd">
<svg version="1.1" id="Layer_1" xmlns="http://www.w3.org/2000/svg" xmlns:xlink="http://www.w3.org/1999/xlink" x="0px" y="0px"
	 width="40px" height="40px" viewBox="0 0 40 40" enable-background="new 0 0 40 40" xml:space="preserve">
<g>
	<path fill="#FFFFFF" d="M18.212,18.793c-0.326,0-0.59,0.271-0.59,0.606s0.264,0.607,0.59,0.607h2.261
		c0.326,0,0.589-0.272,0.589-0.607s-0.266-0.606-0.589-0.606H18.212z"/>
	<path fill="#FFFFFF" d="M35.107,16.367l-3.689-0.732c-0.41-0.081-0.545-0.11-0.68-0.186c-0.164-0.095-0.396-0.302-0.813-0.677
		l-0.006-0.006c-0.146-0.131-0.315-0.284-0.517-0.46l-3.739-3.325c-1.035-0.92-1.408-0.954-2.827-0.946h-0.003
		c-0.245,0.001-0.522,0.002-0.853-0.002l-2.256-0.027h-0.007c-0.323,0-0.586,0.267-0.59,0.6c-0.003,0.335,0.258,0.61,0.584,0.614
		l2.26,0.027c0.332,0.004,0.61,0.003,0.856,0.002h0.014c1.263-0.006,1.312-0.006,2.052,0.65l3.739,3.326
		c0.199,0.175,0.367,0.327,0.515,0.458l0.002,0.002c0.975,0.877,1.072,0.948,2.047,1.142l3.688,0.731
		c3.604,0.717,3.936,0.875,3.936,1.874v0.345h-1.744c-0.777,0-1.41,0.65-1.41,1.45v0.633c0,0.8,0.633,1.449,1.41,1.449h1.744v2.731
		c0.002,0.239-0.067,0.312-0.09,0.334c-0.055,0.053-0.235,0.176-0.771,0.16h-0.018h-2.198c0.096-0.369,0.146-0.759,0.146-1.158
		c0-2.51-1.986-4.55-4.428-4.55c-1.982,0-3.664,1.347-4.227,3.195h-6.596c-0.328,0-0.592,0.271-0.592,0.605
		c0,0.334,0.264,0.605,0.592,0.605h6.396l-0.002,0.033c0,0.034-0.004,0.069-0.004,0.106c0,0.399,0.054,0.789,0.146,1.157h-15.14
		c0.084-0.35,0.129-0.713,0.129-1.088c0-0.069-0.002-0.142-0.005-0.211h6.035c0.326,0,0.591-0.271,0.591-0.606
		c0-0.334-0.265-0.604-0.591-0.604H11.94c-0.583-1.813-2.247-3.129-4.204-3.129c-2.44,0-4.425,2.043-4.425,4.553
		c0,0.111,0.005,0.223,0.013,0.332L1.41,25.234c-0.145-0.041-0.232-0.099-0.229-0.56v-0.01v-3.5l1.237-0.282
		c0.12-0.027,0.23-0.05,0.333-0.07h0.002c0.75-0.15,1.242-0.291,1.867-1.211l0.659-0.97c0.259-0.386,0.297-0.826,0.102-1.207
		c-0.192-0.377-0.594-0.64-0.978-0.64H1.182c0-0.517,0.125-0.921,0.364-1.171c0.237-0.249,0.535-0.302,0.743-0.302h4.145
		c0.07,0,0.136,0.001,0.197,0.002h0.012c0.479,0.009,0.894,0.016,1.532-0.481l3.828-2.976c0.518-0.401,1.074-0.611,1.605-0.611
		h3.317c0.326,0,0.59-0.271,0.59-0.607c0-0.335-0.264-0.606-0.59-0.606H13.61c-0.792-0.004-1.594,0.294-2.319,0.857l-3.828,2.977
		c-0.314,0.244-0.398,0.243-0.8,0.236C6.592,14.101,6.516,14.1,6.434,14.1H6.367H2.44H2.289c-0.613,0-1.176,0.236-1.585,0.664
		C0.373,15.109-0.018,15.755,0,16.86v0.532v3.288v3.987c-0.007,0.942,0.361,1.528,1.096,1.737l2.527,0.716
		c0.651,1.683,2.249,2.873,4.113,2.873c1.624,0,3.045-0.904,3.816-2.246h16.133c0.778,1.306,2.181,2.178,3.774,2.178
		c1.597,0,2.998-0.872,3.774-2.178h2.697c0.037,0,0.073,0.002,0.11,0.002c0.674,0,1.168-0.168,1.509-0.51
		c0.299-0.3,0.448-0.703,0.446-1.203v-6.605C39.999,17.34,38.566,17.055,35.107,16.367z M1.182,18h3.087l-0.617,0.907
		c-0.385,0.564-0.557,0.6-1.127,0.716C2.412,19.646,2.292,19.67,2.162,19.7l-0.98,0.223V18z M7.736,28.781
		c-1.789,0-3.245-1.496-3.245-3.336c0-1.842,1.456-3.338,3.245-3.338c1.79,0,3.247,1.496,3.247,3.338
		C10.983,27.285,9.526,28.781,7.736,28.781z M31.461,28.713c-1.79,0-3.246-1.498-3.246-3.338c0-1.839,1.456-3.335,3.246-3.335
		c1.791,0,3.246,1.496,3.246,3.335C34.707,27.215,33.252,28.713,31.461,28.713z M38.818,22.093h-1.743
		c-0.128,0-0.229-0.104-0.229-0.235v-0.633c0-0.129,0.102-0.233,0.229-0.233h1.743V22.093z"/>
	<path fill="#FFFFFF" d="M15.288,12.444l-1.028,0.002c-0.627,0-0.907,0.213-1.232,0.455c-0.036,0.028-0.075,0.058-0.118,0.09
		l-1.85,1.369c-0.616,0.455-0.616,1.054-0.616,1.31v0.607c0,0.413,0.354,0.744,0.806,0.752h0.009l3.687,0.007h0.032
		c0.425,0,0.763-0.126,1.008-0.373c0.379-0.385,0.379-0.906,0.379-1.187v-2.022c0-0.017-0.001-0.035-0.002-0.052
		C16.331,12.812,15.92,12.444,15.288,12.444z M15.184,15.478c0,0.079,0,0.259-0.028,0.32c-0.016,0.008-0.073,0.028-0.197,0.023
		h-0.008l-3.327-0.006v-0.146c0-0.176,0-0.23,0.125-0.322l1.85-1.37c0.041-0.03,0.08-0.059,0.116-0.086
		c0.004-0.003,0.008-0.006,0.012-0.009c0.259-0.196,0.292-0.221,0.534-0.221l0.923-0.002V15.478z"/>
	<path fill="#FFFFFF" d="M7.736,23.514c-1.035,0-1.877,0.867-1.877,1.932c0,1.065,0.842,1.931,1.877,1.931
		c1.036,0,1.879-0.867,1.879-1.931C9.615,24.38,8.772,23.514,7.736,23.514z M7.736,26.16c-0.383,0-0.696-0.32-0.696-0.715
		c0-0.396,0.312-0.719,0.696-0.719c0.385,0,0.698,0.321,0.698,0.719C8.434,25.84,8.121,26.16,7.736,26.16z"/>
	<path fill="#FFFFFF" d="M31.461,23.445c-1.035,0-1.879,0.865-1.879,1.93s0.844,1.934,1.879,1.934c1.037,0,1.879-0.867,1.879-1.934
		C33.34,24.311,32.498,23.445,31.461,23.445z M31.461,26.092c-0.384,0-0.697-0.32-0.697-0.717c0-0.395,0.313-0.717,0.697-0.717
		c0.385,0,0.698,0.322,0.698,0.717C32.159,25.771,31.846,26.092,31.461,26.092z"/>
	<path fill="#FFFFFF" d="M17.345,13.479v2.315c0,0.02,0,0.041,0,0.061c0,0.005,0,0.011,0,0.016
		c-0.003,0.243-0.007,0.607,0.272,0.894c0.264,0.27,0.631,0.293,0.808,0.293c0.02,0,0.037,0,0.052,0h7.546c0.006,0,0.013,0,0.021,0
		c0.451-0.017,0.793-0.34,0.793-0.752v-0.499c0-0.361-0.163-0.689-0.442-0.899l-2.49-1.887c-0.043-0.031-0.084-0.063-0.12-0.092
		c-0.31-0.236-0.603-0.458-1.229-0.458H18.42c-0.633,0-1.044,0.367-1.074,0.966C17.345,13.451,17.345,13.465,17.345,13.479z
		 M18.526,15.795v-2.111v-0.001h4.029c0.238,0,0.271,0.025,0.525,0.219c0.041,0.032,0.086,0.066,0.129,0.099l2.434,1.843h-7.117
		V15.795z"/>
</g>
</svg>
