<?xml version="1.0" encoding="utf-8"?>
<!-- Generator: Adobe Illustrator 16.0.0, SVG Export Plug-In . SVG Version: 6.00 Build 0)  -->
<!DOCTYPE svg PUBLIC "-//W3C//DTD SVG 1.1//EN" "http://www.w3.org/Graphics/SVG/1.1/DTD/svg11.dtd">
<svg version="1.1" id="Layer_1" xmlns="http://www.w3.org/2000/svg" xmlns:xlink="http://www.w3.org/1999/xlink" x="0px" y="0px"
	 width="40px" height="40px" viewBox="0 0 40 40" enable-background="new 0 0 40 40" xml:space="preserve">
<g>
	<path fill="#FFFFFF" d="M35.641,8.831l-4.443-4.382c-1.307-1.289-1.533-1.392-3.268-1.392c-0.021,0-8.297-0.001-8.402-0.002
		c-1.51-0.016-1.864,0.181-3.413,1.911l-1.422,1.443L13.09,4.878l0.39-0.397c0.255-0.259,0.392-0.602,0.385-0.964
		c-0.006-0.361-0.154-0.698-0.417-0.949L11.202,0.42c-0.264-0.252-0.612-0.388-0.979-0.381C9.856,0.046,9.514,0.193,9.262,0.451
		L3.41,6.406c-0.256,0.26-0.394,0.603-0.387,0.966C3.029,7.734,3.179,8.071,3.44,8.319l2.247,2.148
		c0.258,0.247,0.596,0.381,0.956,0.381h0.019c0.367-0.005,0.71-0.15,0.965-0.41l0.39-0.396l1.596,1.525l-2.128,2.161
		c-1.134,1.149-1.23,1.946-1.248,3.031l-0.009,21.21c0,1.1,0.907,1.992,2.021,1.992h26.708c1.111,0,2.021-0.895,2.021-1.992V12.121
		C36.977,10.591,36.678,9.853,35.641,8.831z M10.252,1.685l1.947,1.86l-1.12,1.14l-1.947-1.86L10.252,1.685z M6.638,9.204
		L4.691,7.343l1.12-1.14l1.947,1.862L6.638,9.204z M6.912,5.083l1.12-1.139l1.947,1.86l-1.12,1.14L6.912,5.083z M9.117,8.922
		l2.874-2.924l1.6,1.53l-2.877,2.92L9.117,8.922z M35.395,33.753h-4.838c0.437,0,0.791,0.351,0.791,0.78
		c0,0.429-0.354,0.779-0.791,0.779h4.838v2.655c0,0.235-0.199,0.435-0.438,0.435H8.248c-0.242,0-0.439-0.195-0.439-0.435
		l0.001-2.655h17.422c-0.436,0-0.791-0.351-0.791-0.779c0-0.43,0.355-0.78,0.791-0.78H7.811l0.001-2.317h27.583V33.753z
		 M35.395,29.876H7.812l0.006-13.098c0.014-0.87,0.058-1.211,0.8-1.963l8.644-8.776c0.009-0.009,0.018-0.018,0.026-0.027
		c0.632-0.706,1.052-1.145,1.331-1.301c0.169-0.095,0.32-0.103,0.892-0.097c0.11,0.001,8.359,0.002,8.359,0.002h0.005
		c0.65,0,1.014-0.001,1.212,0.083c0.209,0.087,0.481,0.352,0.99,0.853l4.442,4.382c0.697,0.688,0.873,1.017,0.873,2.188v17.754
		H35.395z"/>
	<path fill="#FFFFFF" d="M28.875,7.245c-0.51-0.511-0.723-0.594-1.512-0.594h-4.723c-0.488,0-0.914,0.266-1.109,0.694
		c-0.206,0.449-0.12,0.985,0.22,1.367l9.19,10.277c0.172,0.191,0.636,0.708,1.227,0.707c0.116,0,0.238-0.021,0.363-0.067
		c0.8-0.298,0.8-1.332,0.8-1.773v-4.608c0-1.285-0.106-1.717-1.088-2.681L28.875,7.245z M31.749,17.534l-8.338-9.323l4.211,0.003
		l3.503,3.456c0.624,0.614,0.624,0.614,0.624,1.579V17.534z"/>
	<path fill="#FFFFFF" d="M26.758,18.648c-2.061-0.716-4.098-0.596-5.738,0.339c-1.006,0.574-1.818,1.43-2.391,2.496
		c-0.57-1.064-1.382-1.92-2.39-2.496c-1.642-0.935-3.68-1.055-5.739-0.339c-0.368,0.128-0.586,0.5-0.514,0.878
		c0.399,2.117,1.523,3.798,3.165,4.733c0.935,0.532,1.998,0.8,3.121,0.8c0.512,0,1.036-0.057,1.566-0.168v2.51
		c0,0.432,0.354,0.779,0.791,0.779s0.791-0.35,0.791-0.779v-2.51c0.53,0.111,1.054,0.168,1.564,0.168c1.123,0,2.188-0.268,3.121-0.8
		c1.644-0.935,2.768-2.616,3.166-4.733C27.346,19.148,27.126,18.776,26.758,18.648z M13.942,22.908
		c-1.061-0.604-1.84-1.653-2.238-2.99c1.373-0.329,2.683-0.186,3.744,0.418c1.063,0.605,1.841,1.652,2.239,2.99
		C16.312,23.654,15.003,23.514,13.942,22.908z M23.314,22.908c-1.063,0.604-2.371,0.746-3.746,0.418
		c0.397-1.338,1.177-2.385,2.24-2.99c1.063-0.604,2.369-0.747,3.744-0.418C25.156,21.255,24.376,22.305,23.314,22.908z"/>
</g>
</svg>
