<?xml version="1.0" encoding="utf-8"?>
<!-- Generator: Adobe Illustrator 16.0.0, SVG Export Plug-In . SVG Version: 6.00 Build 0)  -->
<!DOCTYPE svg PUBLIC "-//W3C//DTD SVG 1.1//EN" "http://www.w3.org/Graphics/SVG/1.1/DTD/svg11.dtd">
<svg version="1.1" id="Layer_1" xmlns="http://www.w3.org/2000/svg" xmlns:xlink="http://www.w3.org/1999/xlink" x="0px" y="0px"
	 width="40px" height="40px" viewBox="0 0 40 40" enable-background="new 0 0 40 40" xml:space="preserve">
<g>
	<path fill="#FFFFFF" d="M20,0C8.955,0,0,8.954,0,20s8.955,20,20,20c11.046,0,20-8.954,20-20C39.986,8.959,31.041,0.013,20,0z
		 M38.65,19.333h-2.668c-0.154-3.779-1.648-7.38-4.215-10.16l1.885-1.884C36.718,10.569,38.492,14.847,38.65,19.333z M20.666,1.35
		c4.486,0.158,8.766,1.932,12.045,4.997l-1.885,1.885c-2.779-2.566-6.381-4.06-10.16-4.215V1.35L20.666,1.35z M19.333,1.35v2.667
		c-3.779,0.155-7.38,1.649-10.16,4.215L7.29,6.347C10.569,3.282,14.847,1.508,19.333,1.35z M6.347,7.29l1.885,1.884
		c-2.566,2.779-4.06,6.38-4.215,10.16H1.35C1.508,14.847,3.282,10.569,6.347,7.29z M1.35,20.666h2.667
		c0.155,3.779,1.649,7.381,4.215,10.16l-1.885,1.885C3.282,29.432,1.508,25.152,1.35,20.666z M19.333,38.65
		c-4.487-0.159-8.765-1.937-12.044-5l1.884-1.885c2.779,2.565,6.38,4.062,10.16,4.217V38.65z M5.333,20
		C5.333,11.9,11.9,5.333,20,5.333c8.1,0,14.666,6.566,14.666,14.667c0,8.1-6.566,14.666-14.666,14.666
		C11.904,34.658,5.342,28.096,5.333,20z M20.666,38.65v-2.668c3.779-0.154,7.381-1.648,10.16-4.215l1.885,1.885
		C29.432,36.718,25.152,38.492,20.666,38.65z M33.652,32.711l-1.885-1.885c2.565-2.779,4.061-6.381,4.215-10.16h2.668
		C38.492,25.152,36.718,29.432,33.652,32.711z"/>
	<path fill="#FFFFFF" d="M21.334,26.666h-2.667c-1.473,0-2.667,1.193-2.667,2.668C16,30.807,17.194,32,18.667,32h2.667
		C22.807,32,24,30.807,24,29.334C24,27.859,22.807,26.666,21.334,26.666z M21.334,30.666h-2.667c-0.736,0-1.333-0.596-1.333-1.332
		S17.931,28,18.667,28h2.667c0.736,0,1.332,0.598,1.332,1.334S22.07,30.666,21.334,30.666z"/>
	<path fill="#FFFFFF" d="M9.333,20c-0.003-5.407,4.041-9.96,9.411-10.594l-0.155-1.324C12.005,8.864,7.301,14.836,8.084,21.42
		c0.145,1.217,0.474,2.404,0.978,3.521l1.215-0.549C9.651,23.012,9.33,21.516,9.333,20z"/>
	<path fill="#FFFFFF" d="M30.666,20c0.004,1.516-0.316,3.012-0.943,4.393l1.215,0.549c2.728-6.043,0.039-13.153-6.006-15.88
		c-1.117-0.503-2.305-0.833-3.521-0.978l-0.154,1.324C26.625,10.04,30.67,14.593,30.666,20z"/>
	<path fill="#FFFFFF" d="M11.333,25.334c-1.104,0-2,0.895-2,2c0,1.104,0.896,2,2,2s2-0.896,2-2
		C13.333,26.229,12.438,25.334,11.333,25.334z M11.333,28c-0.368,0-0.667-0.299-0.667-0.666c0-0.369,0.299-0.668,0.667-0.668
		S12,26.965,12,27.334C12,27.701,11.702,28,11.333,28z"/>
	<path fill="#FFFFFF" d="M28.666,25.334c-1.104,0-2,0.895-2,2c0,1.104,0.896,2,2,2c1.105,0,2-0.896,2-2
		C30.666,26.229,29.771,25.334,28.666,25.334z M28.666,28C28.299,28,28,27.701,28,27.334c0-0.369,0.299-0.668,0.666-0.668
		c0.369,0,0.668,0.299,0.668,0.668C29.334,27.701,29.035,28,28.666,28z"/>
	<polygon fill="#FFFFFF" points="24.824,17.632 25.17,16.345 23.991,16.029 24.309,14.851 23.02,14.506 22.604,16.061 
		20.666,17.179 20.666,14.943 21.805,13.805 20.861,12.862 20,13.724 19.138,12.862 18.195,13.805 19.333,14.943 19.333,17.179 
		17.397,16.061 16.981,14.506 15.693,14.851 16.009,16.029 14.831,16.345 15.176,17.632 16.731,17.215 18.667,18.333 16.731,19.451 
		15.176,19.035 14.831,20.322 16.009,20.639 15.693,21.816 16.981,22.16 17.397,20.605 19.333,19.488 19.333,21.725 18.195,22.861 
		19.138,23.805 20,22.943 20.861,23.805 21.805,22.861 20.666,21.725 20.666,19.488 22.604,20.605 23.02,22.16 24.309,21.816 
		23.991,20.639 25.17,20.322 24.824,19.035 23.27,19.451 21.334,18.333 23.27,17.215 	"/>
</g>
</svg>
