<?xml version="1.0" encoding="utf-8"?>
<!-- Generator: Adobe Illustrator 16.0.0, SVG Export Plug-In . SVG Version: 6.00 Build 0)  -->
<!DOCTYPE svg PUBLIC "-//W3C//DTD SVG 1.1//EN" "http://www.w3.org/Graphics/SVG/1.1/DTD/svg11.dtd">
<svg version="1.1" id="Layer_1" xmlns="http://www.w3.org/2000/svg" xmlns:xlink="http://www.w3.org/1999/xlink" x="0px" y="0px"
	 width="40px" height="40px" viewBox="0 0 40 40" enable-background="new 0 0 40 40" xml:space="preserve">
<g>
	<path fill="#FFFFFF" d="M38.477,10.819c0.84,0,1.523-0.685,1.523-1.525V6.523c0-0.84-0.684-1.524-1.523-1.524h-3.478V4.03
		c0-1.396-1.136-2.53-2.532-2.53h-6.164c-1.396,0-2.533,1.135-2.533,2.53v0.969h-7.54V4.03c0-1.396-1.136-2.53-2.533-2.53H7.533
		c-1.396,0-2.532,1.135-2.532,2.53v0.969H1.524C0.684,4.999,0,5.684,0,6.523v2.771c0,0.841,0.684,1.525,1.524,1.525h0.028v19.728
		c0,1.734,1.223,3.188,2.853,3.545v2.084c0,1.281,1.044,2.324,2.328,2.324h3.445c1.284,0,2.329-1.043,2.329-2.324v-1.998h17.12
		c0.375,2.443,2.494,4.322,5.043,4.322c2.816,0,5.105-2.289,5.105-5.1c0-1.318-0.502-2.521-1.328-3.428V10.819H38.477z
		 M26.303,3.062h6.164c0.535,0,0.971,0.435,0.971,0.969V5h-8.104V4.03h-0.001C25.332,3.495,25.768,3.062,26.303,3.062z M6.563,4.03
		c0-0.534,0.435-0.969,0.97-0.969h6.164c0.535,0,0.97,0.434,0.97,0.969v0.969H6.563V4.03z M10.944,36.176
		c0,0.42-0.344,0.764-0.766,0.764H6.733c-0.422,0-0.766-0.344-0.766-0.764v-1.998h4.977V36.176z M17.206,32.617L17.206,32.617
		l-0.001-10.043c0-0.514,0.419-0.932,0.933-0.932h18.749v7.164c-0.672-0.324-1.424-0.507-2.217-0.507
		c-2.547,0-4.666,1.875-5.043,4.316L17.206,32.617L17.206,32.617z M34.67,36.938c-1.953,0-3.541-1.586-3.541-3.537
		c0-1.95,1.588-3.539,3.541-3.539c1.954,0,3.543,1.589,3.543,3.539C38.213,35.352,36.624,36.938,34.67,36.938z M38.438,9.258H23.51
		c-0.432,0-0.781,0.35-0.781,0.78c0,0.432,0.351,0.781,0.781,0.781h13.377v9.261H18.138c-1.376,0-2.495,1.118-2.495,2.494v10.043
		h-3.918H5.186c-1.143,0-2.072-0.928-2.072-2.07V10.819h13.371c0.431,0,0.781-0.35,0.781-0.781c0-0.431-0.35-0.78-0.781-0.78H1.563
		V6.561h36.875V9.258z"/>
	<path fill="#FFFFFF" d="M21.454,18.138H32.15c1.402,0,2.543-1.141,2.543-2.542c0-1.4-1.141-2.539-2.543-2.539H21.454
		c-1.402,0-2.542,1.139-2.542,2.539C18.912,16.997,20.053,18.138,21.454,18.138z M21.454,14.618H32.15
		c0.541,0,0.979,0.439,0.979,0.979c0,0.54-0.438,0.979-0.979,0.979H21.454c-0.54,0-0.979-0.438-0.979-0.979
		C20.475,15.058,20.914,14.618,21.454,14.618z"/>
	<path fill="#FFFFFF" d="M11.362,24.785h-2.31l1.657-3.329c0.192-0.386,0.035-0.854-0.351-1.046
		c-0.387-0.192-0.855-0.035-1.047,0.352l-2.219,4.457c-0.253,0.508,0.131,1.131,0.702,1.129H10.1l-1.659,3.326
		c-0.192,0.387-0.035,0.855,0.351,1.047c0.112,0.057,0.231,0.082,0.348,0.082c0.287,0,0.563-0.158,0.7-0.432l2.221-4.457
		c0.062-0.125,0.089-0.268,0.079-0.406C12.111,25.107,11.765,24.785,11.362,24.785z"/>
	<path fill="#FFFFFF" d="M14.593,13.058c-1.401,0-2.541,1.139-2.541,2.539c0,1.4,1.14,2.541,2.541,2.542
		c1.402,0,2.542-1.142,2.542-2.542C17.135,14.197,15.994,13.058,14.593,13.058z M14.594,16.576c-0.54,0-0.979-0.438-0.979-0.979
		c0-0.539,0.439-0.979,0.979-0.979c0.54,0,0.979,0.439,0.979,0.979S15.134,16.576,14.594,16.576z"/>
	<path fill="#FFFFFF" d="M10.392,15.597c0-1.4-1.141-2.539-2.542-2.539s-2.541,1.139-2.541,2.539c0,1.401,1.14,2.542,2.541,2.542
		C9.252,18.139,10.392,16.997,10.392,15.597z M6.871,15.597c0-0.539,0.439-0.979,0.979-0.979s0.979,0.439,0.979,0.979
		S8.39,16.576,7.85,16.576S6.871,16.138,6.871,15.597z"/>
	<path fill="#FFFFFF" d="M19.694,23.512c-0.431,0-0.781,0.35-0.781,0.781v0.004c0,0.432,0.35,0.777,0.781,0.777
		c0.432,0,0.781-0.352,0.781-0.781C20.475,23.861,20.125,23.512,19.694,23.512z"/>
	<path fill="#FFFFFF" d="M19.694,26.939c-0.431,0-0.781,0.35-0.781,0.781v0.008c0,0.43,0.35,0.774,0.781,0.774
		c0.432,0,0.781-0.354,0.781-0.782C20.475,27.289,20.125,26.939,19.694,26.939z"/>
	<path fill="#FFFFFF" d="M22.826,23.512c-0.432,0-0.781,0.35-0.781,0.781v0.004c0,0.432,0.35,0.777,0.781,0.777
		c0.431,0,0.781-0.352,0.781-0.781C23.607,23.861,23.258,23.512,22.826,23.512z"/>
	<path fill="#FFFFFF" d="M22.826,26.939c-0.432,0-0.781,0.35-0.781,0.781v0.008c0,0.43,0.35,0.774,0.781,0.774
		c0.431,0,0.781-0.354,0.781-0.782C23.607,27.289,23.258,26.939,22.826,26.939z"/>
	<path fill="#FFFFFF" d="M25.956,23.512c-0.431,0-0.781,0.35-0.781,0.781v0.004c0,0.432,0.351,0.777,0.781,0.777
		c0.433,0,0.78-0.352,0.78-0.781C26.736,23.861,26.389,23.512,25.956,23.512z"/>
	<path fill="#FFFFFF" d="M25.956,26.939c-0.431,0-0.781,0.35-0.781,0.781v0.008c0,0.43,0.351,0.774,0.781,0.774
		c0.433,0,0.78-0.354,0.78-0.782C26.736,27.289,26.389,26.939,25.956,26.939z"/>
	<path fill="#FFFFFF" d="M35.318,24.297c0-0.432-0.352-0.781-0.781-0.781h-5.07c-0.431,0-0.781,0.351-0.781,0.781
		c0,0.432,0.353,0.779,0.781,0.779h5.07C34.969,25.076,35.318,24.729,35.318,24.297z"/>
	<path fill="#FFFFFF" d="M34.67,32.617c-0.432,0-0.781,0.35-0.781,0.781v0.004c0,0.432,0.35,0.777,0.781,0.777
		s0.781-0.353,0.781-0.781C35.451,32.967,35.102,32.617,34.67,32.617z"/>
	<path fill="#FFFFFF" d="M19.996,10.819H20c0.431,0,0.779-0.35,0.779-0.781c0-0.431-0.352-0.78-0.784-0.78s-0.781,0.35-0.781,0.78
		C19.214,10.47,19.564,10.819,19.996,10.819z"/>
</g>
</svg>
