<?xml version="1.0" encoding="utf-8"?>
<!-- Generator: Adobe Illustrator 16.0.0, SVG Export Plug-In . SVG Version: 6.00 Build 0)  -->
<!DOCTYPE svg PUBLIC "-//W3C//DTD SVG 1.1//EN" "http://www.w3.org/Graphics/SVG/1.1/DTD/svg11.dtd">
<svg version="1.1" id="Layer_1" xmlns="http://www.w3.org/2000/svg" xmlns:xlink="http://www.w3.org/1999/xlink" x="0px" y="0px"
	 width="40px" height="40px" viewBox="0 0 40 40" enable-background="new 0 0 40 40" xml:space="preserve">
<g>
	<path fill="#FFFFFF" d="M32,2.667c-0.139-0.002-0.275,0.043-0.387,0.127l-0.674,0.48C27.693,1.13,23.889-0.008,20,0
		C8.954,0,0,8.954,0,20s8.954,20,20,20c3.889,0.008,7.693-1.131,10.939-3.273l0.674,0.48c0.111,0.084,0.248,0.129,0.387,0.127
		c4.486,0,8-7.613,8-17.334C40,10.28,36.486,2.667,32,2.667z M19.92,1.88l0.407-0.533c3.34,0.049,6.604,1.003,9.446,2.76
		l-2.826,2.02c-0.055,0.034-0.1,0.08-0.133,0.133c-2.033-1.001-4.262-1.543-6.527-1.586L20.107,4.5
		C19.406,3.792,19.327,2.68,19.92,1.88z M30.152,9.32L30,9.113V8.04l2.572-1.84c1.768,1.1,4.094,6.287,4.094,13.8
		c0,7.514-2.326,12.7-4.094,13.8L30,31.96v-1.073l0.152-0.207c0.119-0.16,0.162-0.365,0.113-0.56
		c-0.045-0.194-0.179-0.356-0.359-0.44c-1.209-0.574-1.956-1.816-1.898-3.154c0.059-1.338,0.911-2.51,2.166-2.979
		c0.215-0.082,0.373-0.268,0.42-0.494c0.049-0.227-0.027-0.463-0.201-0.619c-0.676-0.629-1.06-1.51-1.06-2.434
		c0-0.923,0.384-1.805,1.06-2.433c0.174-0.157,0.25-0.393,0.201-0.62c-0.047-0.226-0.205-0.412-0.42-0.493
		c-1.255-0.468-2.107-1.641-2.166-2.979c-0.058-1.337,0.689-2.58,1.898-3.155c0.182-0.083,0.314-0.246,0.359-0.44
		C30.314,9.686,30.271,9.48,30.152,9.32z M28.873,17.293c-0.215,0.308-0.393,0.642-0.525,0.993C28.041,18.1,27.691,18.001,27.334,18
		c-1.105,0-2,0.896-2,2c0,1.104,0.895,2,2,2c0.357-0.001,0.707-0.1,1.014-0.287c0.133,0.352,0.312,0.686,0.525,0.994
		c-1.366,0.854-2.199,2.348-2.207,3.959c0.002,0.492,0.084,0.98,0.24,1.447c-4.314,3.684-10.758,3.344-14.663-0.771
		c-3.904-4.115-3.904-10.568,0-14.684c3.905-4.115,10.348-4.455,14.663-0.771c-0.156,0.466-0.238,0.955-0.24,1.447
		C26.674,14.945,27.507,16.439,28.873,17.293z M28,20c0,0.368-0.299,0.666-0.666,0.666c-0.369,0-0.668-0.298-0.668-0.666
		s0.299-0.667,0.668-0.667C27.701,19.333,28,19.632,28,20z M26.67,10.02c0.002,0.007,0.004,0.013,0.004,0.02
		c-5.006-3.363-11.729-2.49-15.708,2.04c-3.98,4.53-3.98,11.311,0,15.84c3.979,4.53,10.703,5.403,15.708,2.04v0.005l-0.002,0.006
		c0,0.002-0.001,0.006-0.002,0.01c-0.002,0.006-0.004,0.014-0.004,0.021v2.308c-5.889,3.193-13.217,1.768-17.478-3.404
		c-4.261-5.17-4.261-12.635,0-17.806C13.449,5.927,20.777,4.5,26.666,7.695V10C26.666,10.007,26.668,10.013,26.67,10.02z
		 M10.874,4.354l0.08-0.673c2.373-1.318,5.006-2.101,7.713-2.293c-0.604,1.031-0.615,2.306-0.026,3.347
		c-2.128,0.184-4.193,0.815-6.06,1.854L12.34,6.52C11.382,6.261,10.758,5.339,10.874,4.354z M9.54,4.547
		c-0.01,1.197,0.621,2.308,1.653,2.913c-1.746,1.23-3.219,2.808-4.327,4.633l-0.24,0.06c-0.958,0.256-1.96-0.229-2.353-1.14
		l-0.267-0.626C5.409,8.064,7.296,6.072,9.54,4.547z M3.207,11.854c0.591,1.041,1.69,1.688,2.887,1.7
		c-0.899,1.934-1.382,4.035-1.42,6.167L4.5,19.894c-0.708,0.7-1.82,0.779-2.62,0.187l-0.54-0.407
		C1.385,16.962,2.022,14.293,3.207,11.854z M3.68,29.047c-1.319-2.373-2.102-5.006-2.293-7.713c0.511,0.309,1.096,0.473,1.693,0.473
		c0.58-0.006,1.149-0.158,1.653-0.447c0.183,2.13,0.815,4.193,1.853,6.062L6.52,27.66c-0.263,0.955-1.182,1.576-2.167,1.467
		L3.68,29.047z M11.013,35.727l-0.626,0.268c-2.319-1.398-4.309-3.282-5.833-5.52h0.033c1.186-0.008,2.279-0.643,2.874-1.668
		c1.23,1.746,2.808,3.219,4.633,4.326l0.06,0.24C12.41,34.332,11.924,35.334,11.013,35.727z M20.08,38.12l-0.407,0.54
		c-2.714-0.045-5.386-0.686-7.827-1.873c1.042-0.589,1.688-1.691,1.693-2.887c1.937,0.904,4.042,1.39,6.18,1.426l0.173,0.174
		C20.594,36.207,20.673,37.32,20.08,38.12z M21.334,38.62c0.607-1.032,0.617-2.312,0.025-3.354c1.897-0.162,3.748-0.681,5.453-1.525
		c0.035,0.054,0.08,0.1,0.135,0.133l2.826,2.021C27.223,37.473,24.326,38.408,21.334,38.62z M32.2,35.993l-4.2-3v-2.772l0.133-0.174
		c0.172,0.17,0.355,0.323,0.555,0.46c-0.014,0.052-0.021,0.106-0.021,0.159v1.641c0.002,0.215,0.105,0.416,0.281,0.541l3.173,2.267
		c0.112,0.081,0.247,0.126,0.387,0.127c0.079-0.003,0.159-0.019,0.233-0.048C35.326,34.246,38,28.3,38,20S35.326,5.753,32.74,4.807
		c-0.207-0.079-0.439-0.049-0.62,0.08l-3.173,2.267c-0.176,0.125-0.279,0.326-0.281,0.54v1.64c0,0.054,0.008,0.107,0.021,0.16
		c-0.199,0.137-0.383,0.291-0.555,0.46L28,9.78V7.007l4.2-3c3.526,0.267,6.466,7.48,6.466,15.993
		C38.666,28.514,35.727,35.727,32.2,35.993z"/>
	<path fill="#FFFFFF" d="M24,20c0-2.209-1.791-4-4-4s-4,1.791-4,4s1.791,4,4,4C22.208,23.998,23.998,22.208,24,20z M20,22.666
		c-1.473,0-2.667-1.193-2.667-2.666c0-1.473,1.194-2.667,2.667-2.667c1.473,0,2.666,1.194,2.666,2.667
		C22.666,21.473,21.473,22.666,20,22.666z"/>
	<path fill="#FFFFFF" d="M14.667,20c0-1.104-0.896-2-2-2s-2,0.896-2,2c0,1.104,0.896,2,2,2S14.667,21.104,14.667,20z M12.667,20.666
		C12.298,20.666,12,20.368,12,20s0.298-0.667,0.667-0.667s0.667,0.298,0.667,0.667S13.035,20.666,12.667,20.666z"/>
	<path fill="#FFFFFF" d="M16,15.333c0.809,0,1.538-0.487,1.848-1.235s0.139-1.607-0.434-2.18c-0.572-0.572-1.432-0.743-2.18-0.434
		C14.487,11.795,14,12.524,14,13.333C14,14.438,14.896,15.333,16,15.333z M16,12.667c0.368,0,0.667,0.298,0.667,0.667
		C16.667,13.702,16.368,14,16,14s-0.667-0.298-0.667-0.667C15.333,12.965,15.632,12.667,16,12.667z"/>
	<path fill="#FFFFFF" d="M24,11.333c-1.104,0-2,0.895-2,2c0,1.104,0.896,2,2,2s2-0.896,2-2S25.104,11.333,24,11.333z M24,14
		c-0.368,0-0.666-0.298-0.666-0.667s0.298-0.667,0.666-0.667s0.666,0.298,0.666,0.667S24.368,14,24,14z"/>
	<path fill="#FFFFFF" d="M22,26.666c0,1.105,0.896,2,2,2s2-0.895,2-2c0-1.104-0.896-2-2-2S22,25.563,22,26.666z M24.666,26.666
		c0,0.369-0.298,0.668-0.666,0.668s-0.666-0.299-0.666-0.668C23.334,26.299,23.632,26,24,26S24.666,26.299,24.666,26.666z"/>
	<path fill="#FFFFFF" d="M16,24.666c-1.104,0-2,0.896-2,2c0,1.105,0.896,2,2,2s2-0.895,2-2C18,25.563,17.104,24.666,16,24.666z
		 M16,27.334c-0.368,0-0.667-0.299-0.667-0.668C15.333,26.299,15.632,26,16,26s0.667,0.299,0.667,0.666
		C16.667,27.035,16.368,27.334,16,27.334z"/>
</g>
</svg>
