<?xml version="1.0" encoding="utf-8"?>
<!-- Generator: Adobe Illustrator 16.0.0, SVG Export Plug-In . SVG Version: 6.00 Build 0)  -->
<!DOCTYPE svg PUBLIC "-//W3C//DTD SVG 1.1//EN" "http://www.w3.org/Graphics/SVG/1.1/DTD/svg11.dtd">
<svg version="1.1" id="Layer_1" xmlns="http://www.w3.org/2000/svg" xmlns:xlink="http://www.w3.org/1999/xlink" x="0px" y="0px"
	 width="32px" height="32px" viewBox="0 0 32 32" enable-background="new 0 0 32 32" xml:space="preserve">
<g>
	<path fill="#FFFFFF" d="M22.602,19.102l-1.732-1.539C22.98,16.042,24.266,13.6,24.266,11V6.875C24.264,3.084,21.127,0,17.271,0
		h-2.534c-3.85,0-6.946,3.073-6.946,6.875V11c0,2.593,1.266,5.033,3.352,6.55L9.396,19.1c-3.393,0.129-7.367,2.816-7.367,6.26v6.019
		c0,0.349,0.282,0.625,0.633,0.625h26.674c0.35,0,0.635-0.276,0.635-0.625v-6.017C29.971,21.924,26.002,19.229,22.602,19.102z
		 M21.588,19.882L19.5,24.51l-2.593-1.281l3.04-4.801L21.588,19.882z M16.001,24.18l1.972,0.973l-0.519,1.475h-2.897l-0.485-1.494
		L16.001,24.18z M16,22.301l-2.201-3.474c0.715,0.196,1.457,0.298,2.207,0.298c0.743,0,1.48-0.1,2.191-0.293L16,22.301z M9.06,6.875
		c0-3.102,2.548-5.625,5.68-5.625h2.534c3.156,0,5.725,2.523,5.725,5.625v0.517l-1.188-1.691c-0.107-0.153-0.279-0.251-0.471-0.266
		s-0.373,0.053-0.504,0.186C19.545,6.92,18.055,7.5,16,7.5c-2.056,0-3.546-0.58-4.835-1.878c-0.132-0.134-0.319-0.202-0.508-0.186
		c-0.189,0.016-0.361,0.115-0.469,0.27L9.06,7.338V6.875z M9.06,11V9.556l1.759-2.544C12.229,8.195,13.894,8.75,16,8.75
		c2.107,0,3.773-0.557,5.184-1.742l1.813,2.575V11c0,3.743-3.103,6.875-6.99,6.875C12.129,17.875,9.06,14.753,9.06,11z
		 M12.052,18.428l3.042,4.801l-2.596,1.281l-2.087-4.628L12.052,18.428z M12.61,30.75H3.295v-5.391c0-2.573,3.173-4.797,5.945-5
		l2.369,5.256c0.07,0.154,0.202,0.275,0.365,0.334c0.163,0.058,0.342,0.047,0.497-0.029l0.451-0.223l0.514,1.578L12.61,30.75z
		 M13.913,30.75l0.684-2.875h2.801l0.664,2.875H13.913z M28.703,30.75h-9.34l-0.801-3.465l0.553-1.569l0.412,0.204
		c0.154,0.076,0.336,0.086,0.496,0.029c0.162-0.059,0.295-0.18,0.365-0.334l2.367-5.256c2.771,0.203,5.945,2.427,5.945,5
		L28.703,30.75L28.703,30.75z"/>
	<path fill="#FFFFFF" d="M24.234,27.875h-2.533c-0.352,0-0.635,0.279-0.635,0.625s0.283,0.625,0.635,0.625h2.533
		c0.35,0,0.635-0.279,0.635-0.625S24.584,27.875,24.234,27.875z"/>
	<ellipse fill="#FFFFFF" cx="26.732" cy="28.5" rx="0.635" ry="0.625"/>
</g>
</svg>
