<?xml version="1.0" encoding="utf-8"?>
<!-- Generator: Adobe Illustrator 16.0.0, SVG Export Plug-In . SVG Version: 6.00 Build 0)  -->
<!DOCTYPE svg PUBLIC "-//W3C//DTD SVG 1.1//EN" "http://www.w3.org/Graphics/SVG/1.1/DTD/svg11.dtd">
<svg version="1.1" id="Layer_1" xmlns="http://www.w3.org/2000/svg" xmlns:xlink="http://www.w3.org/1999/xlink" x="0px" y="0px"
	 width="40px" height="40px" viewBox="0 0 40 40" enable-background="new 0 0 40 40" xml:space="preserve">
<g>
	<path fill="#FFFFFF" d="M39.963,36.127l-3.227-9.154c-0.092-0.26-0.334-0.434-0.607-0.434h-3.227V25.23h3.227
		c0.357,0,0.646-0.293,0.646-0.653V3.654C36.773,3.293,36.486,3,36.129,3H3.871C3.515,3,3.226,3.293,3.226,3.654v20.923
		c0,0.36,0.289,0.653,0.645,0.653h3.226v1.309H3.871c-0.272,0-0.516,0.174-0.607,0.434l-3.226,9.154
		c-0.12,0.34,0.055,0.714,0.391,0.836C0.498,36.986,0.572,37,0.646,37h38.709C39.711,37,40,36.707,40,36.346
		C40,36.271,39.988,36.197,39.963,36.127z M4.517,23.924V4.308h30.967v19.616H4.517z M31.613,25.23v1.309H8.387V25.23H31.613z
		 M4.326,27.846h31.352l0.922,2.616H3.404L4.326,27.846z M1.561,35.693l1.382-3.924h34.114l1.383,3.924H1.561z"/>
	<rect x="15.484" y="33.077" fill="#FFFFFF" width="9.032" height="1.308"/>
	<path fill="#FFFFFF" d="M31.613,12.154h-2.58c-0.357,0-0.646,0.293-0.645,0.654v0.654H27.1v-0.654c0-0.361-0.289-0.654-0.646-0.654
		h-3.226v-1.308h0.646c0.356,0,0.646-0.293,0.646-0.654V7.577c0-0.362-0.291-0.654-0.646-0.654h-7.742
		c-0.357,0-0.646,0.293-0.646,0.654v2.615c0,0.362,0.29,0.654,0.646,0.654h0.645v1.308H13.55c-0.357,0-0.646,0.293-0.646,0.654
		v0.654h-1.29v-0.654c0-0.361-0.29-0.654-0.646-0.654H8.387c-0.356,0-0.645,0.293-0.645,0.654v7.846
		c0,0.361,0.289,0.652,0.645,0.652h2.58c0.357,0,0.646-0.291,0.646-0.652V20h1.29v0.654c0,0.361,0.29,0.652,0.646,0.652h12.903
		c0.356,0,0.646-0.291,0.646-0.652V20h1.289v0.654c0,0.361,0.289,0.654,0.646,0.654h2.58c0.354,0,0.645-0.293,0.645-0.654v-7.846
		C32.258,12.447,31.969,12.154,31.613,12.154z M10.323,20h-1.29v-6.538h1.29V20z M12.903,18.692h-1.29V14.77h1.29V18.692z
		 M16.775,9.539V8.231h6.452v1.308H16.775z M21.936,10.846v1.308h-3.871v-1.308H21.936z M25.807,20H14.194v-6.538h11.613V20z
		 M28.387,18.692h-1.289V14.77h1.289V18.692z M30.968,20h-1.29v-6.538h1.291L30.968,20L30.968,20z"/>
</g>
</svg>
