<?xml version="1.0" encoding="utf-8"?>
<!-- Generator: Adobe Illustrator 16.0.0, SVG Export Plug-In . SVG Version: 6.00 Build 0)  -->
<!DOCTYPE svg PUBLIC "-//W3C//DTD SVG 1.1//EN" "http://www.w3.org/Graphics/SVG/1.1/DTD/svg11.dtd">
<svg version="1.1" id="Layer_1" xmlns="http://www.w3.org/2000/svg" xmlns:xlink="http://www.w3.org/1999/xlink" x="0px" y="0px"
	 width="40px" height="40px" viewBox="0 0 40 40" enable-background="new 0 0 40 40" xml:space="preserve">
<g>
	<path fill="#FFFFFF" d="M4.667,4C4.299,4,4,4.298,4,4.667v10.667C4,15.702,4.299,16,4.667,16s0.667-0.298,0.667-0.667V4.667
		C5.333,4.298,5.035,4,4.667,4z"/>
	<path fill="#FFFFFF" d="M8,4C7.632,4,7.333,4.298,7.333,4.667v6c0,0.369,0.298,0.667,0.667,0.667s0.667-0.298,0.667-0.667v-6
		C8.667,4.298,8.368,4,8,4z"/>
	<path fill="#FFFFFF" d="M4.667,18C4.299,18,4,18.298,4,18.667v10.667C4,29.702,4.299,30,4.667,30s0.667-0.298,0.667-0.666V18.667
		C5.333,18.298,5.035,18,4.667,18z"/>
	<path fill="#FFFFFF" d="M8,14c-0.368,0-0.667,0.298-0.667,0.667v10c0,0.369,0.298,0.668,0.667,0.668s0.667-0.299,0.667-0.668v-10
		C8.667,14.298,8.368,14,8,14z"/>
	<path fill="#FFFFFF" d="M8,27.334c-0.368,0-0.667,0.297-0.667,0.666v8.666c0,0.369,0.298,0.668,0.667,0.668
		s0.667-0.299,0.667-0.668V28C8.667,27.631,8.368,27.334,8,27.334z"/>
	<path fill="#FFFFFF" d="M11.333,9.333c-0.368,0-0.667,0.298-0.667,0.667v10c0,0.369,0.299,0.666,0.667,0.666S12,20.369,12,20V10
		C12,9.631,11.701,9.333,11.333,9.333z"/>
	<path fill="#FFFFFF" d="M11.333,23.334c-0.368,0-0.667,0.297-0.667,0.666v11.334c0,0.368,0.299,0.666,0.667,0.666
		S12,35.702,12,35.334V24C12,23.631,11.701,23.334,11.333,23.334z"/>
	<path fill="#FFFFFF" d="M37.666,14.667h-2.332v-2h1.332c1.104,0,2-0.897,2-2s-0.896-2-2-2h-1.332V7.333h1.332c1.104,0,2-0.897,2-2
		s-0.896-2-2-2h-1.332V0.667C35.334,0.298,35.035,0,34.666,0H32c-0.368,0-0.666,0.298-0.666,0.667v2.667H30c-1.104,0-2,0.897-2,2
		s0.896,2,2,2h1.334v1.333H30c-1.104,0-2,0.897-2,2s0.896,2,2,2h1.334v2h-2.332c-1.288,0-2.336,1.047-2.336,2.335v0.332h-5.332V14
		c0-0.369-0.299-0.667-0.668-0.667H16V3.001C16,1.347,14.653,0,12.999,0H3.001C1.347,0,0,1.347,0,3.001v33.997
		C0,38.652,1.347,40,3.001,40h9.997C14.653,40,16,38.652,16,36.998V26.666h4.666c0.369,0,0.668-0.297,0.668-0.666v-3.334h5.332v1
		c0,1.287,1.048,2.334,2.336,2.334h8.664C38.953,26,40,24.953,40,23.666v-6.665C40,15.714,38.953,14.667,37.666,14.667z
		 M32.666,1.333H34v2h-1.334V1.333z M29.334,5.333c0-0.368,0.298-0.667,0.666-0.667h2h2.666h2c0.369,0,0.668,0.299,0.668,0.667
		S37.035,6,36.666,6h-2H32h-2C29.632,6,29.334,5.701,29.334,5.333z M32.666,7.333H34v1.333h-1.334V7.333z M29.334,10.667
		C29.334,10.299,29.632,10,30,10h2h2.666h2c0.369,0,0.668,0.299,0.668,0.667s-0.299,0.667-0.668,0.667h-2H32h-2
		C29.632,11.333,29.334,11.035,29.334,10.667z M32.666,12.667H34v2h-1.334V12.667z M12.999,38.666H5.333v-6
		C5.333,32.298,5.035,32,4.667,32S4,32.298,4,32.666v6H3.001c-0.919,0-1.668-0.747-1.668-1.668v-0.332H2
		c0.368,0,0.667-0.297,0.667-0.666S2.368,35.334,2,35.334H1.333v-4H2c0.368,0,0.667-0.299,0.667-0.668C2.667,30.298,2.368,30,2,30
		H1.333v-4H2c0.368,0,0.667-0.298,0.667-0.666c0-0.369-0.298-0.668-0.667-0.668H1.333v-4H2c0.368,0,0.667-0.297,0.667-0.666
		S2.368,19.333,2,19.333H1.333v-4H2c0.368,0,0.667-0.298,0.667-0.667S2.368,14,2,14H1.333v-4H2c0.368,0,0.667-0.298,0.667-0.667
		S2.368,8.667,2,8.667H1.333v-4H2c0.368,0,0.667-0.298,0.667-0.667S2.368,3.333,2,3.333H1.333V3.001c0-0.92,0.749-1.668,1.668-1.668
		h7.665v5.333c0,0.369,0.299,0.667,0.667,0.667S12,7.035,12,6.667V1.333h0.999c0.919,0,1.668,0.748,1.668,1.668v0.332H14
		c-0.368,0-0.667,0.298-0.667,0.667S13.632,4.667,14,4.667h0.667v4H14c-0.368,0-0.667,0.298-0.667,0.667S13.632,10,14,10h0.667v4H14
		c-0.368,0-0.667,0.298-0.667,0.667s0.298,0.667,0.667,0.667h0.667v4H14c-0.368,0-0.667,0.298-0.667,0.667s0.298,0.666,0.667,0.666
		h0.667v4H14c-0.368,0-0.667,0.299-0.667,0.668C13.333,25.702,13.632,26,14,26h0.667v4H14c-0.368,0-0.667,0.298-0.667,0.666
		c0,0.369,0.298,0.668,0.667,0.668h0.667v4H14c-0.368,0-0.667,0.297-0.667,0.666s0.298,0.666,0.667,0.666h0.667v0.332
		C14.667,37.919,13.918,38.666,12.999,38.666z M20,25.334h-4V14.667h4V18v4V25.334z M21.334,21.334v-2.667h5.332v2.667H21.334z
		 M38.666,23.666c0,0.551-0.449,1-1,1h-8.664c-0.553,0-1.002-0.449-1.002-1V22v-4v-0.999C28,16.449,28.449,16,29.002,16H32h2.666h3
		c0.551,0,1,0.449,1,1.001V23.666z"/>
	<path fill="#FFFFFF" d="M33.805,17.529c-0.26-0.261-0.683-0.261-0.943,0l-2,2c-0.26,0.26-0.26,0.682,0,0.942
		c0.132,0.13,0.302,0.195,0.474,0.195c0.17,0,0.341-0.064,0.472-0.195l2-2C34.064,18.211,34.064,17.789,33.805,17.529z"/>
	<path fill="#FFFFFF" d="M35.529,18.862l-3.334,3.333c-0.262,0.261-0.262,0.682,0,0.943c0.13,0.129,0.301,0.194,0.471,0.194
		c0.172,0,0.342-0.065,0.473-0.194l3.332-3.334c0.262-0.261,0.262-0.682,0-0.943C36.211,18.601,35.789,18.601,35.529,18.862z"/>
</g>
</svg>
