<?xml version="1.0" encoding="utf-8"?>
<!-- Generator: Adobe Illustrator 16.0.0, SVG Export Plug-In . SVG Version: 6.00 Build 0)  -->
<!DOCTYPE svg PUBLIC "-//W3C//DTD SVG 1.1//EN" "http://www.w3.org/Graphics/SVG/1.1/DTD/svg11.dtd">
<svg version="1.1" id="Layer_1" xmlns="http://www.w3.org/2000/svg" xmlns:xlink="http://www.w3.org/1999/xlink" x="0px" y="0px"
	 width="60px" height="60px" viewBox="0 0 60 60" enable-background="new 0 0 60 60" xml:space="preserve">
<path fill="#003166" d="M30,0C13.393,0,0,13.393,0,30c0,16.607,13.393,30,30,30c16.607,0,30-13.393,30-30C60,13.393,46.607,0,30,0z
	 M30,3.536c3,0,5.893,0.536,8.571,1.5l-8.25,17.786c-0.036,0.036-0.06,0.083-0.083,0.131c-0.048,0.096-0.095,0.191-0.238,0.191
	s-0.19-0.095-0.238-0.191c-0.023-0.047-0.047-0.095-0.083-0.131l-8.25-17.786C24.107,4.071,27,3.536,30,3.536z M17.25,6.857
	l9.536,20.572c0.214,0.428,0.429,0.536,0.75,0.536h4.929c0.32,0,0.535-0.107,0.75-0.536l9.428-20.572
	c3.965,2.25,7.393,5.464,9.75,9.322L39,42.107c-0.107,0.214-0.215,0.321-0.321,0.321c-0.144,0-0.19-0.095-0.238-0.19
	c-0.024-0.048-0.048-0.096-0.083-0.131L33.215,30.75c-0.215-0.429-0.43-0.536-0.75-0.536h-4.929c-0.321,0-0.536,0.107-0.75,0.536
	l-5.143,11.357c-0.036,0.035-0.06,0.083-0.083,0.131c-0.048,0.096-0.095,0.19-0.238,0.19c-0.143,0-0.19-0.095-0.238-0.19
	C21.06,42.19,21.036,42.143,21,42.107L7.5,16.179C9.857,12.321,13.286,9.107,17.25,6.857z M30,56.465
	c-14.464,0-26.357-12-26.357-26.465c0-3,0.536-5.893,1.5-8.679l15.428,30c0.214,0.429,0.429,0.75,0.964,0.75s0.75-0.321,0.964-0.75
	l7.179-15.964c0.107-0.215,0.214-0.322,0.321-0.322c0.143,0,0.19,0.096,0.238,0.191c0.023,0.047,0.047,0.095,0.083,0.131
	l7.286,15.964c0.214,0.429,0.428,0.75,0.964,0.75s0.75-0.321,0.964-0.75l15.43-30c0.964,2.679,1.5,5.572,1.5,8.679
	C56.357,44.465,44.465,56.465,30,56.465z"/>
</svg>
